<svg width="57" height="18" viewBox="0 0 57 18" fill="none" xmlns="http://www.w3.org/2000/svg">
<path d="M1.16797 11.124C0.967448 11.124 0.867188 10.9987 0.867188 10.748C0.867188 10.5618 0.949544 10.3577 1.11426 10.1357C1.28613 9.91374 1.38997 9.76693 1.42578 9.69531C1.46159 9.6237 1.55469 9.5127 1.70508 9.3623C1.86263 9.21191 1.9987 9.1224 2.11328 9.09375C2.23503 9.0651 2.47852 9.03288 2.84375 8.99707C3.96094 8.88965 5.17839 8.82878 6.49609 8.81445C7.92839 6.64453 9.0957 5.0332 9.99805 3.98047C8.65885 4.22396 7.0153 4.3457 5.06738 4.3457C2.4248 4.3457 1.10352 3.75488 1.10352 2.57324C1.10352 2.23665 1.27181 1.94303 1.6084 1.69238C1.95215 1.44173 2.38184 1.31641 2.89746 1.31641C3.42025 1.31641 3.68164 1.37728 3.68164 1.49902C3.68164 1.56348 3.59928 1.5957 3.43457 1.5957C3.27702 1.5957 3.12663 1.65658 2.9834 1.77832C2.84733 1.8929 2.7793 2.00391 2.7793 2.11133C2.7793 2.27604 3.13021 2.39779 3.83203 2.47656C4.53385 2.55534 5.61523 2.59473 7.07617 2.59473C8.54427 2.59473 10.1341 2.46224 11.8457 2.19727C12.4115 1.73177 12.9414 1.38086 13.4355 1.14453C13.9368 0.908203 14.4453 0.790039 14.9609 0.790039C15.4766 0.790039 15.8132 0.904622 15.9707 1.13379C16.1283 1.36296 16.207 1.53483 16.207 1.64941C16.2142 1.764 16.1318 1.91439 15.96 2.10059C15.7881 2.28678 15.5482 2.47656 15.2402 2.66992C14.5169 3.11393 13.568 3.37891 12.3936 3.46484C11.1403 5.04753 9.84766 6.83789 8.51562 8.83594C9.06706 8.85742 9.58268 8.90039 10.0625 8.96484C10.5423 9.02214 10.7822 9.20833 10.7822 9.52344C10.7822 9.65234 10.5781 9.89941 10.1699 10.2646C10.127 10.3148 10.0732 10.39 10.0088 10.4902C9.89421 10.6621 9.77962 10.748 9.66504 10.748C9.55762 10.748 9.43229 10.7337 9.28906 10.7051C8.73047 10.6836 8.31152 10.6729 8.03223 10.6729L7.33398 10.6836C4.81315 14.6081 3.50977 16.6491 3.42383 16.8066C3.34505 16.957 3.25553 17.0716 3.15527 17.1504C3.06217 17.2292 2.94401 17.2686 2.80078 17.2686C2.65755 17.2686 2.45703 17.2435 2.19922 17.1934C1.94141 17.1504 1.74805 17.0931 1.61914 17.0215C1.49023 16.957 1.42578 16.8747 1.42578 16.7744C1.42578 16.667 1.45801 16.5166 1.52246 16.3232C1.69434 15.8434 2.89746 13.9922 5.13184 10.7695C3.67806 10.8411 2.52507 10.9163 1.67285 10.9951L1.16797 11.124ZM14.8105 1.42383C14.696 1.45964 14.5563 1.51693 14.3916 1.5957L14.8105 1.42383ZM18.6455 8.83594C19.1898 8.83594 19.4619 9.02214 19.4619 9.39453C19.4619 9.59505 19.4154 9.74186 19.3223 9.83496C19.2292 9.92806 19.0286 10.2396 18.7207 10.7695C18.4199 11.2923 18.0833 11.9655 17.7109 12.7891C17.3457 13.6055 17.1094 14.3037 17.002 14.8838C16.9805 14.9554 16.9697 15.0557 16.9697 15.1846C16.9697 15.5785 17.0771 15.7754 17.292 15.7754C17.5068 15.7754 17.7611 15.6751 18.0547 15.4746C18.3483 15.2669 18.6097 15.0485 18.8389 14.8193C19.068 14.583 19.29 14.3431 19.5049 14.0996C19.7269 13.8561 19.8594 13.7165 19.9023 13.6807C19.9453 13.6449 20.0098 13.627 20.0957 13.627C20.2318 13.627 20.3141 13.7308 20.3428 13.9385C20.3714 14.1462 20.3857 14.361 20.3857 14.583C20.3857 14.805 20.3643 14.959 20.3213 15.0449C20.1136 15.4531 19.6553 15.9437 18.9463 16.5166C18.2445 17.0895 17.6035 17.376 17.0234 17.376C16.4505 17.376 16.028 17.2005 15.7559 16.8496C15.4837 16.4987 15.3477 16.112 15.3477 15.6895C15.3477 15.2598 15.4193 14.8838 15.5625 14.5615C14.9681 15.335 14.2842 15.9902 13.5107 16.5273C12.7445 17.0645 12.1178 17.333 11.6309 17.333C11.1439 17.333 10.7464 17.1862 10.4385 16.8926C10.0446 16.5273 9.84766 16.0225 9.84766 15.3779C9.84766 14.7262 9.99089 14.0745 10.2773 13.4229C10.571 12.764 10.9541 12.166 11.4268 11.6289C11.8994 11.0846 12.4186 10.5905 12.9844 10.1465C14.1732 9.21549 15.2689 8.75 16.2715 8.75C16.6582 8.75 16.9733 8.81445 17.2168 8.94336C17.4603 9.07227 17.6143 9.2334 17.6787 9.42676C17.8506 9.16895 17.9938 9.00781 18.1084 8.94336C18.2301 8.87174 18.4092 8.83594 18.6455 8.83594ZM17.2168 10.0283C15.9922 10.0283 14.7246 10.7087 13.4141 12.0693C12.9486 12.5563 12.5189 13.14 12.125 13.8203C11.7383 14.5007 11.5449 14.9661 11.5449 15.2168C11.5449 15.4674 11.6165 15.5928 11.7598 15.5928C11.9603 15.5928 12.5189 15.1989 13.4355 14.4111C14.3522 13.6162 14.9609 13.0326 15.2617 12.6602C15.5911 12.2448 16.2428 11.3675 17.2168 10.0283ZM22.9209 11.1455C24.611 9.22624 26.0505 8.2666 27.2393 8.2666C27.5329 8.2666 27.7728 8.35612 27.959 8.53516C28.1523 8.70703 28.249 8.93262 28.249 9.21191C28.249 9.49121 28.0485 9.96029 27.6475 10.6191C27.2536 11.2708 26.8883 11.8223 26.5518 12.2734C26.3727 12.5026 26.1686 12.6172 25.9395 12.6172C25.7174 12.6172 25.542 12.5348 25.4131 12.3701C25.2913 12.2054 25.2305 12.012 25.2305 11.79C25.2305 11.2959 25.4954 10.7373 26.0254 10.1143L26.0039 10.0928C25.7676 10.1143 25.1803 10.5798 24.2422 11.4893C23.3112 12.3988 22.5163 13.2152 21.8574 13.9385C21.2057 14.6546 20.4967 15.5283 19.7305 16.5596C19.5085 16.8675 19.3187 17.0215 19.1611 17.0215C19.0107 17.0215 18.8102 16.9749 18.5596 16.8818C18.3018 16.7816 18.1478 16.71 18.0977 16.667C18.0404 16.624 18.0117 16.5524 18.0117 16.4521C18.0117 16.3519 18.0404 16.2373 18.0977 16.1084C18.1549 15.9723 18.2624 15.7826 18.4199 15.5391C18.5703 15.2956 18.7995 14.9017 19.1074 14.3574C19.4225 13.8132 19.9095 12.9896 20.5684 11.8867C21.2272 10.7839 21.6211 10.1178 21.75 9.88867C22.0221 9.41602 22.2441 9.07227 22.416 8.85742C22.7383 8.44922 23.2826 8.24512 24.0488 8.24512C24.2207 8.24512 24.3066 8.35254 24.3066 8.56738C24.3066 8.90397 23.9951 9.53776 23.3721 10.4688L22.9209 11.1455ZM27.0996 17.0645L26.5732 17.043H26.3799C26.3083 17.0215 26.2331 16.9785 26.1543 16.9141C26.0684 16.8496 26.0039 16.8031 25.9609 16.7744C25.918 16.7458 25.8965 16.6956 25.8965 16.624C25.8965 16.5452 25.9251 16.4128 25.9824 16.2266C27.3789 13.1543 28.7288 10.6979 30.0322 8.85742C30.1755 8.6569 30.4046 8.50651 30.7197 8.40625C31.042 8.29883 31.3535 8.24512 31.6543 8.24512C31.8333 8.24512 31.9229 8.38477 31.9229 8.66406C31.9229 8.74284 31.8942 8.85026 31.8369 8.98633C31.7796 9.11523 31.6364 9.33008 31.4072 9.63086C31.1781 9.93164 30.9059 10.2754 30.5908 10.6621C30.2757 11.0488 30.0967 11.2708 30.0537 11.3281C31.0348 10.3112 31.9193 9.55566 32.707 9.06152C33.502 8.56022 34.0749 8.30957 34.4258 8.30957C34.7839 8.30957 35.056 8.41341 35.2422 8.62109C35.4355 8.82161 35.5322 9.04004 35.5322 9.27637C35.5322 9.50553 35.5143 9.69889 35.4785 9.85645C35.4499 10.0068 35.3926 10.168 35.3066 10.3398C35.2207 10.5046 35.1455 10.6478 35.0811 10.7695C35.0238 10.8841 34.9235 11.0381 34.7803 11.2314C34.637 11.4176 34.5368 11.5465 34.4795 11.6182C34.4294 11.6898 34.3184 11.8258 34.1465 12.0264C33.9818 12.2269 33.8923 12.3379 33.8779 12.3594C34.0785 12.1589 34.3577 11.8617 34.7158 11.4678C35.0739 11.0739 35.3747 10.7445 35.6182 10.4795C35.8688 10.2145 36.1803 9.91732 36.5527 9.58789C36.9251 9.2513 37.2725 8.97917 37.5947 8.77148C38.3682 8.28451 39.1523 8.04102 39.9473 8.04102C40.2194 8.04102 40.4486 8.12695 40.6348 8.29883C40.821 8.4707 40.9141 8.67839 40.9141 8.92188C40.9141 9.1582 40.624 9.73112 40.0439 10.6406C39.4639 11.543 38.8838 12.4525 38.3037 13.3691C37.7308 14.2786 37.4443 14.8516 37.4443 15.0879C37.4443 15.4173 37.5052 15.6143 37.627 15.6787C37.7487 15.736 37.8955 15.7575 38.0674 15.7432C38.2393 15.7288 38.4792 15.6178 38.7871 15.4102C39.1022 15.2025 39.3815 14.9876 39.625 14.7656C40.0189 14.4076 40.3841 14.0602 40.7207 13.7236C40.7923 13.6592 40.8711 13.627 40.957 13.627C41.0931 13.627 41.1755 13.7308 41.2041 13.9385C41.2327 14.1462 41.2471 14.361 41.2471 14.583C41.2471 14.805 41.2256 14.959 41.1826 15.0449C40.9749 15.446 40.5166 15.9365 39.8076 16.5166C39.0986 17.0967 38.4183 17.3867 37.7666 17.3867C37.6878 17.3867 37.6305 17.3831 37.5947 17.376C36.8571 17.3044 36.3451 17.1038 36.0586 16.7744C35.7793 16.4378 35.6396 16.0404 35.6396 15.582C35.6396 15.1237 35.7936 14.5687 36.1016 13.917C36.4167 13.2653 36.7604 12.6745 37.1328 12.1445C37.5052 11.6146 37.8454 11.1383 38.1533 10.7158C38.4684 10.2861 38.626 10.0534 38.626 10.0176C38.626 9.98177 38.5973 9.96387 38.54 9.96387C38.318 9.96387 37.8239 10.3219 37.0576 11.0381C35.7471 12.2627 34.6156 13.4443 33.6631 14.583C33.4124 14.8838 32.818 15.6465 31.8799 16.8711C31.7725 17.0143 31.6006 17.0859 31.3643 17.0859C31.1351 17.0859 30.8952 17.043 30.6445 16.957C30.3939 16.8639 30.2686 16.7458 30.2686 16.6025C30.2686 16.5309 30.8379 15.5283 31.9766 13.5947C33.1152 11.654 33.6846 10.5977 33.6846 10.4258C33.6846 10.2467 33.5771 10.1572 33.3623 10.1572C33.1546 10.1572 32.7214 10.4723 32.0625 11.1025C30.2507 12.8356 28.847 14.5579 27.8516 16.2695C27.7871 16.3698 27.6618 16.5273 27.4756 16.7422C27.2894 16.957 27.1641 17.0645 27.0996 17.0645ZM47.875 8.96484C47.875 9.4375 47.6816 9.85286 47.2949 10.2109C46.9154 10.569 46.4821 10.748 45.9951 10.748C45.8376 10.748 45.7337 10.7122 45.6836 10.6406C45.6335 10.5618 45.6084 10.4616 45.6084 10.3398C45.6084 10.2181 45.6227 10.0999 45.6514 9.98535C45.3936 10.0713 45.1071 10.2038 44.792 10.3828C44.4769 10.5618 44.0902 10.8268 43.6318 11.1777C43.1735 11.5286 42.9443 11.79 42.9443 11.9619C42.9443 12.0192 43.0267 12.0479 43.1914 12.0479C43.3633 12.0479 43.6247 11.9906 43.9756 11.876C44.3265 11.7542 44.57 11.6934 44.7061 11.6934C44.8493 11.6934 44.9424 11.7005 44.9854 11.7148C45.0785 11.765 45.1787 11.876 45.2861 12.0479C45.3936 12.2126 45.4473 12.3451 45.4473 12.4453C45.4473 12.5384 45.3542 12.6637 45.168 12.8213C44.9818 12.9788 44.7705 13.1006 44.5342 13.1865C44.2979 13.2653 44.1403 13.3262 44.0615 13.3691C42.5505 14.2142 41.7949 14.7943 41.7949 15.1094C41.7949 15.668 42.2712 15.9473 43.2236 15.9473C43.8324 15.9473 44.4447 15.7539 45.0605 15.3672C45.5833 15.0378 46.0524 14.7048 46.4678 14.3682C46.8903 14.0244 47.1553 13.8132 47.2627 13.7344C47.3773 13.6556 47.4632 13.6162 47.5205 13.6162C47.7067 13.6162 47.7998 13.8239 47.7998 14.2393C47.7998 14.6546 47.7747 14.9303 47.7246 15.0664C47.6745 15.1953 47.5312 15.3564 47.2949 15.5498C45.7624 16.7959 44.3122 17.4189 42.9443 17.4189C42.2139 17.4189 41.6302 17.3187 41.1934 17.1182C40.3913 16.7529 39.9902 16.1943 39.9902 15.4424C39.9902 14.4541 40.6742 13.7057 42.042 13.1973C41.7699 13.0755 41.5944 12.9215 41.5156 12.7354C41.4368 12.542 41.3975 12.2376 41.3975 11.8223C41.3975 11.3997 41.5908 10.9557 41.9775 10.4902C42.3714 10.0176 42.8512 9.63086 43.417 9.33008C44.6774 8.64974 45.8018 8.30957 46.79 8.30957C47.0264 8.30957 47.2663 8.36686 47.5098 8.48145C47.7533 8.59603 47.875 8.75716 47.875 8.96484ZM50.9795 11.1455C52.6696 9.22624 54.109 8.2666 55.2979 8.2666C55.5915 8.2666 55.8314 8.35612 56.0176 8.53516C56.2109 8.70703 56.3076 8.93262 56.3076 9.21191C56.3076 9.49121 56.1071 9.96029 55.7061 10.6191C55.3122 11.2708 54.9469 11.8223 54.6104 12.2734C54.4313 12.5026 54.2272 12.6172 53.998 12.6172C53.776 12.6172 53.6006 12.5348 53.4717 12.3701C53.3499 12.2054 53.2891 12.012 53.2891 11.79C53.2891 11.2959 53.554 10.7373 54.084 10.1143L54.0625 10.0928C53.8262 10.1143 53.2389 10.5798 52.3008 11.4893C51.3698 12.3988 50.5749 13.2152 49.916 13.9385C49.2643 14.6546 48.5553 15.5283 47.7891 16.5596C47.5671 16.8675 47.3773 17.0215 47.2197 17.0215C47.0693 17.0215 46.8688 16.9749 46.6182 16.8818C46.3604 16.7816 46.2064 16.71 46.1562 16.667C46.099 16.624 46.0703 16.5524 46.0703 16.4521C46.0703 16.3519 46.099 16.2373 46.1562 16.1084C46.2135 15.9723 46.321 15.7826 46.4785 15.5391C46.6289 15.2956 46.8581 14.9017 47.166 14.3574C47.4811 13.8132 47.9681 12.9896 48.627 11.8867C49.2858 10.7839 49.6797 10.1178 49.8086 9.88867C50.0807 9.41602 50.3027 9.07227 50.4746 8.85742C50.7969 8.44922 51.3411 8.24512 52.1074 8.24512C52.2793 8.24512 52.3652 8.35254 52.3652 8.56738C52.3652 8.90397 52.0537 9.53776 51.4307 10.4688L50.9795 11.1455Z" fill="#7EB693"/>
</svg>
